<svg width="24" height="24" viewBox="0 0 24 24" fill="none" xmlns="http://www.w3.org/2000/svg">
<mask id="mask0_161_109" style="mask-type:alpha" maskUnits="userSpaceOnUse" x="0" y="0" width="24" height="24">
<rect width="24" height="24" fill="#D9D9D9"/>
</mask>
<g mask="url(#mask0_161_109)">
<path d="M14 15L18 11L16.6 9.6L15 11.2V7H13V11.2L11.4 9.6L10 11L14 15ZM14 21C12.6167 21 11.3167 20.7375 10.1 20.2125C8.88333 19.6875 7.825 18.975 6.925 18.075C6.025 17.175 5.3125 16.1167 4.7875 14.9C4.2625 13.6833 4 12.3833 4 11C4 9.61667 4.2625 8.31667 4.7875 7.1C5.3125 5.88333 6.025 4.825 6.925 3.925C7.825 3.025 8.88333 2.3125 10.1 1.7875C11.3167 1.2625 12.6167 1 14 1C15.3833 1 16.6833 1.2625 17.9 1.7875C19.1167 2.3125 20.175 3.025 21.075 3.925C21.975 4.825 22.6875 5.88333 23.2125 7.1C23.7375 8.31667 24 9.61667 24 11C24 12.3833 23.7375 13.6833 23.2125 14.9C22.6875 16.1167 21.975 17.175 21.075 18.075C20.175 18.975 19.1167 19.6875 17.9 20.2125C16.6833 20.7375 15.3833 21 14 21ZM14 19C16.2333 19 18.125 18.225 19.675 16.675C21.225 15.125 22 13.2333 22 11C22 8.76667 21.225 6.875 19.675 5.325C18.125 3.775 16.2333 3 14 3C11.7667 3 9.875 3.775 8.325 5.325C6.775 6.875 6 8.76667 6 11C6 13.2333 6.775 15.125 8.325 16.675C9.875 18.225 11.7667 19 14 19Z" fill="white"/>
</g>
</svg>
